<?xml version="1.0" encoding="UTF-8"?>
<!DOCTYPE svg PUBLIC "-//W3C//DTD SVG 1.1//EN" "http://www.w3.org/Graphics/SVG/1.1/DTD/svg11.dtd">
<svg xmlns="http://www.w3.org/2000/svg" version="1.1" width="1600px" height="900px" style="shape-rendering:geometricPrecision; text-rendering:geometricPrecision; image-rendering:optimizeQuality; fill-rule:evenodd; clip-rule:evenodd" xmlns:xlink="http://www.w3.org/1999/xlink">
<g><path style="opacity:1" fill="#202837" d="M -0.5,-0.5 C 532.833,-0.5 1066.17,-0.5 1599.5,-0.5C 1599.5,299.5 1599.5,599.5 1599.5,899.5C 1066.17,899.5 532.833,899.5 -0.5,899.5C -0.5,599.5 -0.5,299.5 -0.5,-0.5 Z"/></g>
<g><path style="opacity:1" fill="#e6732d" d="M 454.5,173.5 C 473.316,171.661 484.316,179.994 487.5,198.5C 484.948,217.795 473.948,225.962 454.5,223C 451.221,221.816 448.221,220.483 445.5,219C 434.314,231.352 423.314,243.852 412.5,256.5C 427.153,271.653 441.986,286.653 457,301.5C 452.875,307.807 447.708,313.473 441.5,318.5C 427.014,304.514 412.681,290.347 398.5,276C 397.5,275.333 396.5,275.333 395.5,276C 392.5,279.667 389.5,283.333 386.5,287C 406.9,307.4 427.233,327.733 447.5,348C 436.596,376.212 425.596,404.378 414.5,432.5C 414.608,433.442 414.941,434.275 415.5,435C 423.986,438.743 432.319,442.743 440.5,447C 438.309,453.213 435.476,459.047 432,464.5C 416.082,458.04 400.415,451.04 385,443.5C 384.675,441.447 385.009,439.447 386,437.5C 397.305,409.723 408.472,381.89 419.5,354C 398.027,331.693 376.36,309.526 354.5,287.5C 380.853,257.648 407.02,227.648 433,197.5C 436.916,192.004 440.582,186.337 444,180.5C 447.308,177.771 450.808,175.438 454.5,173.5 Z"/></g>
<g><path style="opacity:1" fill="#e5732d" d="M 295.5,397.5 C 292.437,393.434 288.771,390.101 284.5,387.5C 256.59,352.579 253.09,315.246 274,275.5C 301.924,235.964 339.091,223.297 385.5,237.5C 380.167,243.833 374.833,250.167 369.5,256.5C 333.406,252.338 307.24,266.338 291,298.5C 282.174,323.303 285.507,346.303 301,367.5C 325.959,393.728 354.793,398.895 387.5,383C 390.266,381.533 392.766,379.7 395,377.5C 391.296,389.45 387.462,401.45 383.5,413.5C 351.415,422.497 322.082,417.163 295.5,397.5 Z"/></g>
<g><path style="opacity:1" fill="#e6732d" d="M 284.5,387.5 C 287.101,391.771 290.434,395.437 294.5,398.5C 389.132,492.632 483.632,586.965 578,681.5C 578.667,682.5 578.667,683.5 578,684.5C 565.319,697.347 552.486,710.014 539.5,722.5C 419.5,603.167 299.833,483.5 180.5,363.5C 193.885,350.614 207.052,337.614 220,324.5C 241.661,345.327 263.161,366.327 284.5,387.5 Z"/></g>
<g><path style="opacity:1" fill="#e7732d" d="M 937.5,324.5 C 951.081,336.578 964.247,349.244 977,362.5C 977.667,363.167 977.667,363.833 977,364.5C 857.667,483.833 738.333,603.167 619,722.5C 605.833,709.333 592.667,696.167 579.5,683C 699.035,563.632 818.368,444.132 937.5,324.5 Z"/></g>
<g><path style="opacity:1" fill="#664134" d="M 284.5,387.5 C 288.771,390.101 292.437,393.434 295.5,397.5C 294.833,397.5 294.5,397.833 294.5,398.5C 290.434,395.437 287.101,391.771 284.5,387.5 Z"/></g>
<g><path style="opacity:1" fill="#fcfcfc" d="M 1102.5,598.5 C 1122.65,596.693 1140.98,601.527 1157.5,613C 1178.38,632.677 1185.21,656.51 1178,684.5C 1169.88,709.154 1153.05,723.988 1127.5,729C 1099.49,733.89 1076.33,725.724 1058,704.5C 1041.79,678.336 1041.45,652.003 1057,625.5C 1068.79,610.693 1083.96,601.693 1102.5,598.5 Z"/></g>
<g><path style="opacity:1" fill="#fefefe" d="M 152.5,675.5 C 151.506,684.652 151.173,693.985 151.5,703.5C 170.5,703.5 189.5,703.5 208.5,703.5C 208.5,711.5 208.5,719.5 208.5,727.5C 180.167,727.5 151.833,727.5 123.5,727.5C 123.5,685.5 123.5,643.5 123.5,601.5C 151.167,601.5 178.833,601.5 206.5,601.5C 206.5,609.5 206.5,617.5 206.5,625.5C 188.5,625.5 170.5,625.5 152.5,625.5C 152.5,634.167 152.5,642.833 152.5,651.5C 168.833,651.5 185.167,651.5 201.5,651.5C 201.5,659.5 201.5,667.5 201.5,675.5C 185.167,675.5 168.833,675.5 152.5,675.5 Z"/></g>
<g><path style="opacity:1" fill="#fefefe" d="M 348.5,675.5 C 348.783,676.289 349.283,676.956 350,677.5C 350.5,652.169 350.667,626.836 350.5,601.5C 359.833,601.5 369.167,601.5 378.5,601.5C 378.5,643.5 378.5,685.5 378.5,727.5C 370.14,727.831 361.807,727.498 353.5,726.5C 335.808,701.815 318.142,677.148 300.5,652.5C 300.217,651.711 299.717,651.044 299,650.5C 298.5,676.165 298.333,701.831 298.5,727.5C 289.167,727.5 279.833,727.5 270.5,727.5C 270.5,685.5 270.5,643.5 270.5,601.5C 278.86,601.169 287.193,601.502 295.5,602.5C 313.421,626.686 331.087,651.019 348.5,675.5 Z"/></g>
<g><path style="opacity:1" fill="#696e78" d="M 350.5,601.5 C 350.667,626.836 350.5,652.169 350,677.5C 349.283,676.956 348.783,676.289 348.5,675.5C 349.167,650.833 349.833,626.167 350.5,601.5 Z"/></g>
<g><path style="opacity:1" fill="#fefefe" d="M 793.5,702.5 C 811.993,703.497 830.659,703.83 849.5,703.5C 849.5,711.5 849.5,719.5 849.5,727.5C 821.5,727.5 793.5,727.5 765.5,727.5C 765.5,685.5 765.5,643.5 765.5,601.5C 793.167,601.5 820.833,601.5 848.5,601.5C 848.5,609.5 848.5,617.5 848.5,625.5C 830.167,625.5 811.833,625.5 793.5,625.5C 793.5,634.167 793.5,642.833 793.5,651.5C 810.167,651.5 826.833,651.5 843.5,651.5C 843.5,659.5 843.5,667.5 843.5,675.5C 826.833,675.5 810.167,675.5 793.5,675.5C 793.5,684.5 793.5,693.5 793.5,702.5 Z"/></g>
<g><path style="opacity:1" fill="#a3a6ad" d="M 940.5,601.5 C 931.167,601.5 921.833,601.5 912.5,601.5C 912.5,643.5 912.5,685.5 912.5,727.5C 911.501,685.337 911.168,643.003 911.5,600.5C 921.348,600.173 931.014,600.506 940.5,601.5 Z"/></g>
<g><path style="opacity:1" fill="#fefefe" d="M 940.5,601.5 C 940.5,634.5 940.5,667.5 940.5,700.5C 958.833,700.5 977.167,700.5 995.5,700.5C 995.5,709.5 995.5,718.5 995.5,727.5C 967.833,727.5 940.167,727.5 912.5,727.5C 912.5,685.5 912.5,643.5 912.5,601.5C 921.833,601.5 931.167,601.5 940.5,601.5 Z"/></g>
<g><path style="opacity:1" fill="#fcfcfc" d="M 1240.5,601.5 C 1260.84,601.333 1281.17,601.5 1301.5,602C 1332.87,609.882 1345.03,629.715 1338,661.5C 1332.48,677.686 1321.31,687.519 1304.5,691C 1292.88,692.361 1281.21,692.861 1269.5,692.5C 1269.5,704.167 1269.5,715.833 1269.5,727.5C 1259.83,727.5 1250.17,727.5 1240.5,727.5C 1240.5,685.5 1240.5,643.5 1240.5,601.5 Z"/></g>
<g><path style="opacity:1" fill="#9a9da5" d="M 1480.5,601.5 C 1453.17,601.5 1425.83,601.5 1398.5,601.5C 1398.5,643.5 1398.5,685.5 1398.5,727.5C 1397.5,685.337 1397.17,643.003 1397.5,600.5C 1425.34,600.169 1453.01,600.502 1480.5,601.5 Z"/></g>
<g><path style="opacity:1" fill="#fefefe" d="M 1480.5,601.5 C 1480.5,609.5 1480.5,617.5 1480.5,625.5C 1462.5,625.5 1444.5,625.5 1426.5,625.5C 1426.5,634.167 1426.5,642.833 1426.5,651.5C 1443.17,651.5 1459.83,651.5 1476.5,651.5C 1476.5,659.5 1476.5,667.5 1476.5,675.5C 1459.83,675.5 1443.17,675.5 1426.5,675.5C 1426.5,684.833 1426.5,694.167 1426.5,703.5C 1445.17,703.5 1463.83,703.5 1482.5,703.5C 1482.5,711.5 1482.5,719.5 1482.5,727.5C 1454.5,727.5 1426.5,727.5 1398.5,727.5C 1398.5,685.5 1398.5,643.5 1398.5,601.5C 1425.83,601.5 1453.17,601.5 1480.5,601.5 Z"/></g>
<g><path style="opacity:1" fill="#202837" d="M 1104.5,626.5 C 1120.24,624.135 1133.41,628.801 1144,640.5C 1152.28,655.606 1152.61,670.94 1145,686.5C 1139.2,695.288 1131.03,700.454 1120.5,702C 1088.05,703.55 1073.22,688.05 1076,655.5C 1079.68,639.986 1089.18,630.32 1104.5,626.5 Z"/></g>
<g><path style="opacity:1" fill="#202837" d="M 1269.5,626.5 C 1277.51,626.334 1285.51,626.5 1293.5,627C 1308.99,631.146 1314.16,640.98 1309,656.5C 1305.77,662.704 1300.61,666.204 1293.5,667C 1285.51,667.5 1277.51,667.666 1269.5,667.5C 1269.5,653.833 1269.5,640.167 1269.5,626.5 Z"/></g>
<g><path style="opacity:1" fill="#4e5561" d="M 300.5,652.5 C 299.833,677.5 299.167,702.5 298.5,727.5C 298.333,701.831 298.5,676.165 299,650.5C 299.717,651.044 300.217,651.711 300.5,652.5 Z"/></g>
<g><path style="opacity:1" fill="#7d828b" d="M 152.5,675.5 C 152.5,684.5 152.5,693.5 152.5,702.5C 171.341,702.17 190.007,702.503 208.5,703.5C 189.5,703.5 170.5,703.5 151.5,703.5C 151.173,693.985 151.506,684.652 152.5,675.5 Z"/></g>
<g><path style="opacity:1" fill="#868b93" d="M 793.5,702.5 C 812.5,702.5 831.5,702.5 850.5,702.5C 850.826,711.017 850.493,719.35 849.5,727.5C 849.5,719.5 849.5,711.5 849.5,703.5C 830.659,703.83 811.993,703.497 793.5,702.5 Z"/></g>
</svg>
